# xmcd CD database file
#
# Track frame offsets:
#	150
#	12914
#	23051
#	36287
#	49873
#	60833
#	73013
#	81332
#	102740
#	116111
#	129778
#	149274
#	169851
#	182939
#	203027
#	216625
#
# Disc length: 3178 seconds
#
# Revision: 0
# Processed by: cddbd v1.5.2PL0 Copyright (c) Steve Scherf et al.
# Submitted via: CDex 1.75
#
DISCID=ec0c6810
DTITLE=Muddy Waters - The Chess Singles Collection and At Newport 1960 CD4
DYEAR=1960
DGENRE=Blues
TTITLE0=Woman wanted 
TTITLE1=Messin' with the man
TTITLE2=Lonesome bedroom blues
TTITLE3=Going home
TTITLE4=Tough times
TTITLE5=You shook me
TTITLE6=Muddy Waters twist
TTITLE7=I Got My Brand On You
TTITLE8=Hoochie Coochie Man
TTITLE9=Baby, Please Don't Go
TTITLE10=Soon Forgotten
TTITLE11=Tiger In Your Tank
TTITLE12=I Feel So Good
TTITLE13=Got My Mojo Working (Part 1)
TTITLE14=Got My Mojo Working (Part 2)
TTITLE15=Goodbye Newport Blues
EXTD=YEAR: 1960
EXTT0=
EXTT1=
EXTT2=
EXTT3=
EXTT4=
EXTT5=
EXTT6=
EXTT7=
EXTT8=
EXTT9=
EXTT10=
EXTT11=
EXTT12=
EXTT13=
EXTT14=
EXTT15=
PLAYORDER=
